<?xml version="1.0" standalone="no"?>
<svg xmlns:xlink="http://www.w3.org/1999/xlink" id="wave" style="transform:rotate(0deg); transition: 0.3s" viewBox="0 0 1440 490" version="1.1" xmlns="http://www.w3.org/2000/svg"><defs><linearGradient id="sw-gradient-0" x1="0" x2="0" y1="1" y2="0"><stop stop-color="rgba(116, 128, 255, 1)" offset="0%"/><stop stop-color="rgba(74, 0, 255, 1)" offset="100%"/></linearGradient></defs><path style="transform:translate(0, 0px); opacity:1" fill="url(#sw-gradient-0)" d="M0,294L120,285.8C240,278,480,261,720,277.7C960,294,1200,343,1440,310.3C1680,278,1920,163,2160,138.8C2400,114,2640,180,2880,236.8C3120,294,3360,343,3600,318.5C3840,294,4080,196,4320,187.8C4560,180,4800,261,5040,285.8C5280,310,5520,278,5760,220.5C6000,163,6240,82,6480,98C6720,114,6960,229,7200,228.7C7440,229,7680,114,7920,89.8C8160,65,8400,131,8640,171.5C8880,212,9120,229,9360,196C9600,163,9840,82,10080,114.3C10320,147,10560,294,10800,326.7C11040,359,11280,278,11520,245C11760,212,12000,229,12240,269.5C12480,310,12720,376,12960,392C13200,408,13440,376,13680,367.5C13920,359,14160,376,14400,318.5C14640,261,14880,131,15120,138.8C15360,147,15600,294,15840,359.3C16080,425,16320,408,16560,351.2C16800,294,17040,196,17160,147L17280,98L17280,490L17160,490C17040,490,16800,490,16560,490C16320,490,16080,490,15840,490C15600,490,15360,490,15120,490C14880,490,14640,490,14400,490C14160,490,13920,490,13680,490C13440,490,13200,490,12960,490C12720,490,12480,490,12240,490C12000,490,11760,490,11520,490C11280,490,11040,490,10800,490C10560,490,10320,490,10080,490C9840,490,9600,490,9360,490C9120,490,8880,490,8640,490C8400,490,8160,490,7920,490C7680,490,7440,490,7200,490C6960,490,6720,490,6480,490C6240,490,6000,490,5760,490C5520,490,5280,490,5040,490C4800,490,4560,490,4320,490C4080,490,3840,490,3600,490C3360,490,3120,490,2880,490C2640,490,2400,490,2160,490C1920,490,1680,490,1440,490C1200,490,960,490,720,490C480,490,240,490,120,490L0,490Z"/></svg>